<?xml version="1.0" standalone="no"?>
<!DOCTYPE svg PUBLIC "-//W3C//DTD SVG 20010904//EN"
 "http://www.w3.org/TR/2001/REC-SVG-20010904/DTD/svg10.dtd">
<svg version="1.0" xmlns="http://www.w3.org/2000/svg"
 width="71.000000pt" height="73.000000pt" viewBox="0 0 71.000000 73.000000"
 preserveAspectRatio="xMidYMid meet">

<g transform="translate(0.000000,73.000000) scale(0.100000,-0.100000)"
fill="#000000" stroke="none">
<path d="M213 480 c-12 -5 -27 -19 -33 -30 -15 -29 6 -53 61 -69 23 -7 39 -17
36 -24 -6 -19 -50 -38 -79 -34 -20 2 -28 -1 -28 -11 0 -19 67 -11 104 13 40
26 33 51 -19 70 -61 24 -72 39 -43 59 26 19 78 21 78 4 0 -9 3 -9 12 0 26 26
-40 42 -89 22z"/>
<path d="M347 413 c-19 -87 -21 -113 -9 -113 5 0 15 32 22 72 l14 72 19 -47
c11 -26 23 -47 27 -47 5 0 25 23 45 50 20 28 38 50 40 50 1 0 0 -31 -3 -70 -3
-43 -1 -70 5 -70 11 0 26 170 17 180 -6 5 -28 -19 -75 -80 l-26 -34 -20 54
c-11 30 -24 55 -29 57 -5 2 -17 -32 -27 -74z"/>
</g>
</svg>
